<svg xmlns="http://www.w3.org/2000/svg" width="20.966" height="20.966" viewBox="0 0 20.966 20.966">
  <defs>
    <style>
      .cls-1 {
        fill: #008a85;
      }
    </style>
  </defs>
  <path id="more" class="cls-1" d="M10.483,0A10.483,10.483,0,1,0,20.966,10.483,10.495,10.495,0,0,0,10.483,0ZM5.4,12.071a1.588,1.588,0,1,1,1.588-1.588A1.59,1.59,0,0,1,5.4,12.071Zm5.083,0a1.588,1.588,0,1,1,1.588-1.588A1.59,1.59,0,0,1,10.483,12.071Zm5.083,0a1.588,1.588,0,1,1,1.588-1.588A1.59,1.59,0,0,1,15.566,12.071Z"/>
</svg>
