<svg xmlns="http://www.w3.org/2000/svg" xmlns:xlink="http://www.w3.org/1999/xlink" width="47.341" height="46.33" viewBox="0 0 47.341 46.33">
  <defs>
    <style>
      .cls-1 {
        fill: #01d8d1;
      }

      .cls-2 {
        fill: #0c8783;
      }

      .cls-3 {
        fill: #fff;
      }

      .cls-4 {
        filter: url(#Path_37);
      }

      .cls-5 {
        filter: url(#Path_36);
      }
    </style>
    <filter id="Path_36" x="0" y="7.082" width="42.282" height="39.247" filterUnits="userSpaceOnUse">
      <feOffset dy="3" input="SourceAlpha"/>
      <feGaussianBlur stdDeviation="3" result="blur"/>
      <feFlood flood-opacity="0.161"/>
      <feComposite operator="in" in2="blur"/>
      <feComposite in="SourceGraphic"/>
    </filter>
    <filter id="Path_37" x="5.059" y="0" width="42.282" height="33.682" filterUnits="userSpaceOnUse">
      <feOffset dy="3" input="SourceAlpha"/>
      <feGaussianBlur stdDeviation="3" result="blur-2"/>
      <feFlood flood-opacity="0.161"/>
      <feComposite operator="in" in2="blur-2"/>
      <feComposite in="SourceGraphic"/>
    </filter>
  </defs>
  <g id="chat" transform="translate(9 5)">
    <g class="cls-5" transform="matrix(1, 0, 0, 1, -9, -5)">
      <path id="Path_36-2" data-name="Path 36" class="cls-1" d="M24.282,17.494V28.188a2.494,2.494,0,0,1-2.494,2.494H11.129L6.071,36.247V30.682H2.494A2.494,2.494,0,0,1,0,28.189V17.494A2.494,2.494,0,0,1,2.494,15H21.788A2.494,2.494,0,0,1,24.282,17.494Z" transform="translate(9 -1.92)"/>
    </g>
    <g class="cls-4" transform="matrix(1, 0, 0, 1, -9, -5)">
      <path id="Path_37-2" data-name="Path 37" class="cls-2" d="M31.789,1h-19.3A2.494,2.494,0,0,0,10,3.494V8.082H26.73a2.494,2.494,0,0,1,2.494,2.494v6.106h2.565a2.494,2.494,0,0,0,2.494-2.494V3.494A2.494,2.494,0,0,0,31.789,1Z" transform="translate(4.06 5)"/>
    </g>
    <path id="Path_38" data-name="Path 38" class="cls-3" d="M17.588,25.027H10.506a.506.506,0,0,1,0-1.012h7.082a.506.506,0,1,1,0,1.012Z" transform="translate(-4.941 -11.372)"/>
    <path id="Path_39" data-name="Path 39" class="cls-3" d="M24.165,31.027H10.506a.506.506,0,0,1,0-1.012H24.165a.506.506,0,1,1,0,1.012Z" transform="translate(-4.941 -14.337)"/>
    <path id="Path_40" data-name="Path 40" class="cls-3" d="M24.165,37.027H10.506a.506.506,0,0,1,0-1.012H24.165a.506.506,0,1,1,0,1.012Z" transform="translate(-4.941 -17.301)"/>
  </g>
</svg>
